<svg width="50" height="50" viewBox="0 0 50 50" fill="none" xmlns="http://www.w3.org/2000/svg">
<circle cx="25" cy="25" r="25" fill="black"/>
<circle cx="25" cy="25" r="18.5185" fill="white"/>
<path d="M18.9162 30.8256C19.8484 32 21.5833 32 25.0532 32H25.6136C29.0834 32 30.8183 32 31.7505 30.8256M18.9162 30.8256C17.9841 29.6511 18.3038 27.8681 18.9433 24.3021C19.398 21.7662 19.6254 20.4982 20.4886 19.7491M18.9162 30.8256C18.9162 30.8256 18.9162 30.8256 18.9162 30.8256ZM31.7505 30.8256C32.6827 29.6511 32.3629 27.8681 31.7235 24.3021C31.2687 21.7662 31.0414 20.4982 30.1781 19.7491M31.7505 30.8256C31.7505 30.8256 31.7505 30.8256 31.7505 30.8256ZM30.1781 19.7491C29.3149 19 28.0811 19 25.6136 19H25.0532C22.5856 19 21.3518 19 20.4886 19.7491M30.1781 19.7491C30.1781 19.7491 30.1781 19.7491 30.1781 19.7491ZM20.4886 19.7491C20.4886 19.7491 20.4886 19.7491 20.4886 19.7491Z" stroke="black" stroke-width="1.5"/>
<path d="M23.3334 22C23.6245 23.1652 24.41 24 25.3334 24C26.2567 24 27.0423 23.1652 27.3334 22" stroke="black" stroke-width="1.5" stroke-linecap="round"/>
</svg>
